<?xml version="1.0" encoding="utf-8"?>
<!-- Generator: Adobe Illustrator 16.0.0, SVG Export Plug-In . SVG Version: 6.00 Build 0)  -->
<!DOCTYPE svg PUBLIC "-//W3C//DTD SVG 1.1//EN" "http://www.w3.org/Graphics/SVG/1.1/DTD/svg11.dtd">
<svg version="1.1" id="Layer_1" xmlns="http://www.w3.org/2000/svg" xmlns:xlink="http://www.w3.org/1999/xlink" x="0px" y="0px"
	 width="85.249px" height="84.268px" viewBox="0 0 85.249 84.268" enable-background="new 0 0 85.249 84.268" xml:space="preserve">
<ellipse fill="#FFFFFF" stroke="#63D3FF" stroke-width="2" stroke-miterlimit="10" cx="42.625" cy="42.134" rx="41.625" ry="41.134"/>
<path id="path1" fill="#63D3FF" d="M46.446,10.291c0.685-0.449,3.09-2.211,2.824-3.624c-0.266-1.411-1.112-1.738-2.015-1.568
	c-0.899,0.169-1.173,0.669-1.52,1.425c-0.6-0.578-1.034-0.943-1.934-0.774c-0.905,0.17-1.572,0.783-1.306,2.194
	C42.762,9.357,45.646,10.121,46.446,10.291z"/>
<g>
	<path fill="#63D3FF" d="M39.193,19.165c1.213-0.335,5.583-1.79,5.859-3.99c0.275-2.194-0.812-3.082-2.214-3.258
		c-1.408-0.177-2.043,0.43-2.907,1.373c-0.61-1.127-1.07-1.873-2.483-2.051c-1.401-0.176-2.672,0.417-2.948,2.61
		C34.224,16.049,38.098,18.539,39.193,19.165z"/>
</g>
<path id="path2" fill="#63D3FF" d="M63.856,46.87h-42.5v24.687v6.89c6.519,2.61,13.756,4.076,21.388,4.076c7.524,0,14.665-1.427,21.112-3.968
	v-6.998V46.87z"/>
<path fill="#F6F7F8" d="M42.624,61.35c1.145-0.477,5.223-2.426,5.223-4.6c0-2.176-1.17-2.902-2.561-2.902s-1.932,0.668-2.662,1.693
	c-0.73-1.025-1.271-1.693-2.662-1.693s-2.559,0.727-2.559,2.902C37.403,58.924,41.479,60.874,42.624,61.35z"/>
<path fill="#FFFFFF" d="M42.624,64.661c-2.965,0-5.368,2.057-5.368,4.594v11.875h10.737V69.254
	C47.993,66.717,45.589,64.661,42.624,64.661z"/>
<path id="path3" fill="#63D3FF" d="M46.236,73.667c0,0.688-0.559,1.25-1.246,1.25c-0.691,0-1.254-0.562-1.254-1.25
	c0-0.689,0.562-1.252,1.254-1.252C45.678,72.415,46.236,72.977,46.236,73.667z"/>
<g>
	<defs>
		<path id="SVGID_1_" d="M69.704,50.665c-0.412-1.004-8.769-20.188-9.232-21.215c-0.462-1.029-0.977-1.068-2.215-1.068
			s-13.771,0-15.425,0c-1.65,0-14.182,0-15.42,0c-1.238,0-1.753,0.039-2.22,1.068c-0.461,1.027-8.816,20.211-9.229,21.215
			c-0.722,1.594-0.155,2.141,1.443,2.184c1.857,0,25.425,0,25.425,0s23.57,0,25.43,0C69.86,52.805,70.427,52.258,69.704,50.665z"/>
	</defs>
	<clipPath id="SVGID_2_">
		<use xlink:href="#SVGID_1_"  overflow="visible"/>
	</clipPath>
	<path id="path4" clip-path="url(#SVGID_2_)" fill="#FFFFFF" stroke="#63D3FF" stroke-width="1.5" stroke-miterlimit="10" d="M69.704,50.665
		c-0.412-1.004-8.769-20.188-9.232-21.215c-0.462-1.029-0.977-1.068-2.215-1.068s-13.771,0-15.425,0c-1.65,0-14.182,0-15.42,0
		c-1.238,0-1.753,0.039-2.22,1.068c-0.461,1.027-8.816,20.211-9.229,21.215c-0.722,1.594-0.155,2.141,1.443,2.184
		c1.857,0,25.425,0,25.425,0s23.57,0,25.43,0C69.86,52.805,70.427,52.258,69.704,50.665z"/>
	<path id="path5" clip-path="url(#SVGID_2_)" fill="#63D3FF" d="M69.704,50.665c-0.412-1.004-8.769-20.188-9.232-21.215
		c-0.462-1.029-0.977-1.068-2.215-1.068s-13.771,0-15.425,0c-1.65,0-14.182,0-15.42,0c-1.238,0-1.753,0.039-2.22,1.068
		c-0.461,1.027-8.816,20.211-9.229,21.215c-0.722,1.594-0.155,2.141,1.443,2.184c1.857,0,25.425,0,25.425,0s23.57,0,25.43,0
		C69.86,52.805,70.427,52.258,69.704,50.665z"/>
	<g clip-path="url(#SVGID_2_)">
		<path fill="none" stroke="#FFFFFF" stroke-miterlimit="10" d="M20.435,45.497c0,2.188-2.009,3.959-4.49,3.959
			s-4.492-1.771-4.492-3.959"/>
		<path fill="none" stroke="#FFFFFF" stroke-miterlimit="10" d="M29.417,45.497c0,2.188-2.011,3.959-4.492,3.959
			c-2.479,0-4.492-1.771-4.492-3.959"/>
		<path fill="none" stroke="#FFFFFF" stroke-miterlimit="10" d="M38.4,45.497c0,2.188-2.012,3.959-4.493,3.959
			c-2.478,0-4.493-1.771-4.493-3.959"/>
		<path fill="none" stroke="#FFFFFF" stroke-miterlimit="10" d="M47.381,45.497c0,2.188-2.011,3.959-4.492,3.959
			c-2.479,0-4.489-1.771-4.489-3.959"/>
		<path fill="none" stroke="#FFFFFF" stroke-miterlimit="10" d="M56.362,45.497c0,2.188-2.014,3.959-4.492,3.959
			c-2.48,0-4.491-1.771-4.491-3.959"/>
		<path fill="none" stroke="#FFFFFF" stroke-miterlimit="10" d="M65.344,45.497c0,2.188-2.013,3.959-4.493,3.959
			c-2.478,0-4.488-1.771-4.488-3.959"/>
		<path fill="none" stroke="#FFFFFF" stroke-miterlimit="10" d="M74.325,45.497c0,2.188-2.014,3.959-4.492,3.959
			c-2.48,0-4.489-1.771-4.489-3.959"/>
	</g>
	<g clip-path="url(#SVGID_2_)">
		<path fill="none" stroke="#FFFFFF" stroke-miterlimit="10" d="M20.435,38.295c0,2.186-2.009,3.961-4.49,3.961
			s-4.492-1.775-4.492-3.961"/>
		<path fill="none" stroke="#FFFFFF" stroke-miterlimit="10" d="M29.417,38.295c0,2.186-2.011,3.961-4.492,3.961
			c-2.479,0-4.492-1.775-4.492-3.961"/>
		<path fill="none" stroke="#FFFFFF" stroke-miterlimit="10" d="M38.4,38.295c0,2.186-2.012,3.961-4.493,3.961
			c-2.478,0-4.493-1.775-4.493-3.961"/>
		<path fill="none" stroke="#FFFFFF" stroke-miterlimit="10" d="M47.381,38.295c0,2.186-2.011,3.961-4.492,3.961
			c-2.479,0-4.489-1.775-4.489-3.961"/>
		<path fill="none" stroke="#FFFFFF" stroke-miterlimit="10" d="M56.362,38.295c0,2.186-2.014,3.961-4.492,3.961
			c-2.48,0-4.491-1.775-4.491-3.961"/>
		<path fill="none" stroke="#FFFFFF" stroke-miterlimit="10" d="M65.344,38.295c0,2.186-2.013,3.961-4.493,3.961
			c-2.478,0-4.488-1.775-4.488-3.961"/>
		<path fill="none" stroke="#FFFFFF" stroke-miterlimit="10" d="M74.325,38.295c0,2.186-2.014,3.961-4.492,3.961
			c-2.48,0-4.489-1.775-4.489-3.961"/>
	</g>
	<g clip-path="url(#SVGID_2_)">
		<path fill="none" stroke="#FFFFFF" stroke-miterlimit="10" d="M20.435,30.986c0,2.188-2.009,3.961-4.49,3.961
			s-4.492-1.773-4.492-3.961"/>
		<path fill="none" stroke="#FFFFFF" stroke-miterlimit="10" d="M29.417,30.986c0,2.188-2.011,3.961-4.492,3.961
			c-2.479,0-4.492-1.773-4.492-3.961"/>
		<path fill="none" stroke="#FFFFFF" stroke-miterlimit="10" d="M38.4,30.986c0,2.188-2.012,3.961-4.493,3.961
			c-2.478,0-4.493-1.773-4.493-3.961"/>
		<path fill="none" stroke="#FFFFFF" stroke-miterlimit="10" d="M47.381,30.986c0,2.188-2.011,3.961-4.492,3.961
			c-2.479,0-4.489-1.773-4.489-3.961"/>
		<path fill="none" stroke="#FFFFFF" stroke-miterlimit="10" d="M56.362,30.986c0,2.188-2.014,3.961-4.492,3.961
			c-2.48,0-4.491-1.773-4.491-3.961"/>
		<path fill="none" stroke="#FFFFFF" stroke-miterlimit="10" d="M65.344,30.986c0,2.188-2.013,3.961-4.493,3.961
			c-2.478,0-4.488-1.773-4.488-3.961"/>
		<path fill="none" stroke="#FFFFFF" stroke-miterlimit="10" d="M74.325,30.986c0,2.188-2.014,3.961-4.492,3.961
			c-2.48,0-4.489-1.773-4.489-3.961"/>
	</g>
</g>
<path id="path6" fill="#63D3FF" d="M42.213,21.984c0-0.672-0.516-1.215-1.15-1.215h-7.613c-0.633,0-1.15,0.543-1.15,1.215v6.834h9.914V21.984z"
	/>
</svg>
